<?xml version="1.0" standalone="no"?><!DOCTYPE svg PUBLIC "-//W3C//DTD SVG 1.1//EN" "http://www.w3.org/Graphics/SVG/1.1/DTD/svg11.dtd"><svg t="1679560744144" class="icon" viewBox="0 0 1024 1024" version="1.1" xmlns="http://www.w3.org/2000/svg" p-id="2633" xmlns:xlink="http://www.w3.org/1999/xlink" width="200" height="200"><path d="M529.282 111.373h-1.571c-89.552 1.571-139.827 87.982-152.395 114.689-36.135 21.996-202.67 135.114-202.67 328.358-1.571 249.803 245.090 358.208 323.643 358.208 78.555 0 356.638-87.982 356.638-367.635 0-268.657-208.954-433.622-323.643-433.622zM496.288 865.495c-64.414 0-278.084-95.835-278.084-309.505 0-125.686 84.838-213.669 139.827-259.23-1.571 26.707 0 59.702 12.567 98.979 6.284 21.996 31.422 58.131 47.133 80.125-42.42 32.992-108.406 92.694-108.406 161.823 0 75.413 62.843 125.686 125.686 125.686s125.686-67.556 125.686-125.686-39.277-103.692-62.843-125.686c-12.567-10.996-23.568-29.851-31.422-42.42l4.714-3.143c-18.853-23.568-48.703-67.556-54.989-84.838-23.568-75.413-3.143-125.686-1.571-128.831v0c0-1.571 40.848-92.694 116.26-94.266 94.266 0 276.512 150.825 276.512 386.489-1.571 240.377-245.090 320.502-311.076 320.502zM439.729 519.856c7.856 10.996 15.712 20.425 26.707 29.851 21.996 18.853 47.133 53.417 47.133 89.552 0 31.422-40.848 78.555-78.555 78.555-37.706 0-78.555-29.851-78.555-78.555 0-43.99 45.563-91.123 83.267-119.403z" fill="#6DB33F" p-id="2634"></path></svg>